<svg version="1" xmlns="http://www.w3.org/2000/svg" width="933.333" height="933.333" viewBox="0 0 700 700"><path d="M327.7.6c-.1.1-4.2.5-9 .9-4.8.3-9.6.8-10.6 1-1 .2-4.2.6-7.2 1-7 .8-11.1 1.5-11.8 1.9-.3.2-2.6.7-5.1 1-5.6.8-6.3.9-18.5 4-67 16.7-125.9 51.8-173.4 103.2-9.4 10.3-10.1 11.1-18.2 21.5-33.5 43-58 96.8-67.5 148.4-.9 4.9-1.8 9.9-2 11-.2 1.1-.7 4.2-1 7-.3 2.7-.7 6.1-1 7.5-1.9 11.3-2.6 57.1-1.1 72 1.2 11 2.8 22.6 4.1 29.5.2 1.1.6 3.6 1 5.5 4.9 27.2 15.6 59.5 28.3 85.7C66 566.3 115.9 619.6 178 654.6c26.2 14.8 44.8 22.5 79 32.8 10.5 3.2 35.1 8.2 45.3 9.2 3.4.3 6.5.8 6.8.9 2.9 1.8 54.7 2.6 71.4 1.2 37.8-3.4 74.9-12.9 110-28.2 11.6-5 30.3-14.5 34.7-17.6 1.4-1.1 2.9-1.9 3.3-1.9 1.3 0 26.9-17.5 36.2-24.8 28.7-22.3 53.8-49 73.8-78.1 23.4-34.2 41.3-73.8 51.1-113.4 2.7-11 2.8-11.3 4.3-20.2.6-3.3 1.3-6.9 1.5-8.1.2-1.2.7-4.5 1.1-7.5.3-3 .8-6.5 1-7.9 1-6 1.5-12.3 2-24.4l.6-13-88.3-88.3-88.3-88.3 15-.1h87.8c40 0 72.7-.3 72.7-.7C699 175.1 524.1.6 523.5 1.1c-.3.3-.5 82.4-.5 182.5-.1 100-.5 183.9-1 186.4-.4 2.5-1.1 6.3-1.4 8.5-1 7.1-1.6 9.9-3.2 15.5-9.9 35-27.3 63.1-53.5 86.4-10 8.9-30 22.1-38.9 25.6-1.9.7-4 1.7-4.5 2.1-3.7 2.8-32.2 11.4-41.1 12.5-2.3.3-5.3.7-6.5 1.1-1.3.3-10.5.7-20.4.9-24.2.3-40.4-2.3-61.9-10-47.5-17.2-86.2-56-103.3-103.6-7.6-21-10.2-37.5-9.8-61.5.1-9.9.5-19.1.9-20.5.3-1.4.9-4.5 1.2-7 2.5-19.8 15.6-51.5 28.9-69.6 1.6-2.3 3.8-5.3 4.8-6.7 5.5-7.6 21.5-23.6 29.9-30 18.6-14.1 38.3-24.1 59.5-30.2 16.5-4.8 42.6-8 43.5-5.3.2.7.4 40.3.4 88-.1 57.4.2 86.8.9 86.9 3.8.5 173.8.3 174-.2.2-.3-38.9-39.9-87-88-48.1-48-87.2-87.5-87-87.7.2-.2 39.5-.4 87.4-.3 47.9 0 87.1-.3 87.1-.7 0-.4-39.5-40.2-87.7-88.4L346.5 0l-9.3.3c-5.2.1-9.4.3-9.5.3z"/></svg>